<svg width="905" height="1035" viewBox="0 0 905 1035" fill="none" xmlns="http://www.w3.org/2000/svg">
<g clip-path="url(#clip0_762_5)">
<path d="M0 80C0 35.8172 35.8172 0 80 0H905V851C905 895.183 869.183 931 825 931H0V80Z" fill="#00A582"/>
<path d="M848.749 21.1751L458.76 409.768C453.611 414.899 449.185 420.707 445.604 427.033L161.714 928.622C161.576 928.866 161.357 929.055 161.094 929.156C159.84 929.639 160.185 931.5 161.529 931.5H825C869.183 931.5 905 895.683 905 851.5V0.5C905 0.223858 904.776 0 904.5 0H900C880.788 0 862.358 7.6143 848.749 21.1751Z" fill="black" stroke="black"/>
<path d="M155.263 929.931L135.596 925.772L101 1024.61C101 1024.61 123.611 999.11 134.34 980.297C144.892 961.795 155.263 929.931 155.263 929.931Z" fill="#00A582"/>
<path d="M205.813 845.137C189.86 870.384 168.959 912.143 168.959 912.143L158 932.5L179.01 858.538L202.462 788.182L225.914 717.825L256.067 650.819L299.621 567.062L343.175 500.056C343.175 500.056 394.541 409.943 436.984 359.343C461.367 330.272 503.99 288.986 503.99 288.986C503.99 288.986 541.198 252.677 564.295 228.681C582.912 209.339 611.2 178.426 611.2 178.426C611.2 178.426 575.232 199.112 554.244 215.28C528.582 235.049 493.939 272.235 493.939 272.235C493.939 272.235 449.316 315.59 423.582 345.942C380.397 396.876 326.424 486.654 326.424 486.654L282.87 557.011L235.965 640.768L205.813 711.125L179.01 788.182L155.558 858.538L130 931.381C130 931.381 129.884 895.137 128.756 871.94C127.034 836.558 129.908 816.023 122.055 781.481C118.11 764.128 115.554 754.331 108.654 737.927C104.116 727.14 100.823 721.416 95.2525 711.125C85.7451 693.562 77.9575 685.134 68.4501 667.571C62.8791 657.279 55.0488 640.768 55.0488 640.768C55.0488 640.768 63.3412 639.633 68.4501 640.768C75.8975 642.423 88.8822 649.302 95.2525 653.5C110.78 663.732 122.055 680.972 122.055 680.972V674.271V630.718C122.055 616.325 121.253 608.234 122.055 593.864C123.159 574.096 125.381 563.119 128.756 543.61C131.03 530.462 131.908 522.969 135.456 510.107C140.302 492.539 144.196 482.921 152.208 466.553C160.988 448.615 166.98 436.156 178 419.5C186.812 406.18 191.946 401.515 202.462 389.496C214.053 376.248 222.91 366.806 235.965 355C250.392 341.954 257.136 337.345 272.819 325.84C289.829 313.361 319.723 299.037 319.723 299.037L313 325.84C313 325.84 310.5 345.491 310.5 362.5C310.5 379.509 319.723 396.196 319.723 396.196C319.723 396.196 324.008 388.124 326.424 382.795C337.035 359.382 335.577 343.696 343.175 319.139C350.147 296.606 352.321 283.072 363.277 262.184C373.733 242.25 381.812 232.092 396.78 215.28C410.943 199.372 420.249 191.601 436.984 178.426C449.532 168.547 457.144 163.751 470.487 154.974C489.608 142.396 520.741 116 520.741 116C520.741 116 515.004 143.673 514.041 161.675C513.481 172.127 514.041 188.477 514.041 188.477L530.792 161.675C530.792 161.675 538.554 147.137 544.193 138.223C555.667 120.088 561.987 109.287 577.697 94.6686C595.769 77.8514 631.301 61.1656 631.301 61.1656C631.301 61.1656 672.952 37.7655 701.658 27.6625C722.57 20.3026 735.263 18.4792 756.5 13C783.583 6.0125 804.157 5.1661 832 2.5C860.653 -0.243725 899.326 -2.49023 899.326 -2.49023L892.625 17.6116C892.625 17.6116 885.046 45.4188 875.874 61.1656C867.44 75.6437 859.857 92.3293 849.5 105.5C836.235 122.368 830.561 131.714 815.5 147C797.134 165.64 777.762 177.247 756.5 192.5C739.691 204.559 719.94 213.819 701.658 223.5C681.899 233.962 686.966 231.439 667 241.5C653.374 248.366 631.301 248.783 631.301 248.783L638.002 255.483C638.002 255.483 654.059 261.216 664.805 262.184C677.901 263.363 685.647 262.385 698.308 258.834C707.902 256.142 721.76 248.783 721.76 248.783L751.912 235.381C751.912 235.381 753.211 251.798 751.912 262.184C749.86 278.606 745.444 287.36 738.511 302.388C727.87 325.455 717.613 336.224 701.658 355.992C679.578 383.35 665.083 397.23 638.002 419.648C611.166 441.864 595.759 454.945 564.295 469.903C542.993 480.03 530.207 484.222 507.34 490.005C477.919 497.445 430.283 500.056 430.283 500.056V510.107C430.283 510.107 438.133 514.957 443.684 516.807C456.097 520.945 464.416 522.5 477.5 522.5C498.434 522.5 510.01 519.326 530.792 516.807C544.038 515.202 564.295 510.107 564.295 510.107C564.295 510.107 558.924 526.757 554.244 536.909C541.319 564.953 534.341 578.267 514 601.5C491.443 627.264 466.52 646.837 440 668.5C421.152 683.896 413.582 689.251 393.5 703C375.532 715.302 366.27 719.859 347 730C329.364 739.281 317.641 739.798 299.621 747.978C288.965 752.815 272.819 761.379 272.819 761.379L336.475 768.08L282.87 781.481C282.87 781.481 265.883 783.703 256.067 788.182C247.484 792.099 243.148 795.466 235.965 801.583C220.216 814.996 216.863 827.649 205.813 845.137Z" fill="white" stroke="white" stroke-width="6.70061"/>
</g>
<defs>
<clipPath id="clip0_762_5">
<path d="M0 0H905V1035H0V0Z" fill="white"/>
</clipPath>
</defs>
</svg>
