<svg width="135" height="139" viewBox="0 0 135 139" fill="none" xmlns="http://www.w3.org/2000/svg">
<g clip-path="url(#clip0_757_22)">
<rect width="135" height="139" rx="10" fill="#00A582"/>
<path d="M-113 138.5H14.5L34 75L62 36L131 -1H-113V138.5Z" fill="#00A582" stroke="#00A582"/>
<path d="M247.5 -1H125L63.5 63L19.5 138.5H247.5V-1Z" fill="black" stroke="black"/>
<path d="M26.7158 126.129L21.2158 136.129L20.2158 137.129L22.7158 128.129L26.2158 117.629L29.7158 107.129L34.2158 97.1289L40.7158 84.6289L47.2158 74.6289L61.2158 53.6289L71.2158 43.1289L80.2158 34.1289L87.2158 26.6289L78.7158 32.1289L69.7158 40.6289L59.2158 51.6289L44.7158 72.6289L38.2158 83.1289L31.2158 95.6289L26.7158 106.129L22.7158 117.629L19.2158 128.129L14.2158 138.629L15.2158 130.129L14.2158 116.629L12.2158 110.129L10.2158 106.129L6.21582 99.6289L4.21582 95.6289H6.21582L8.71582 97.1289L14.2158 101.629V100.629V94.1289V88.6289L15.2158 81.1289L16.2158 76.1289L18.7158 69.6289L22.7158 63.1289L26.2158 58.1289L31.2158 53.6289L36.7158 48.6289L43.7158 44.6289V46.1289V59.1289L44.7158 57.1289L47.2158 47.6289L50.2158 39.1289L55.2158 32.1289L61.2158 26.6289L66.2158 23.1289L73.7158 18.6289V23.1289L72.7158 28.1289L75.2158 24.1289L77.2158 20.6289L82.2158 14.1289L90.2158 9.12891L100.716 4.12891L108.716 1.62891L119.216 -0.371094H130.216L129.216 2.62891L126.716 9.12891L122.716 14.1289L117.716 20.6289L109.716 26.6289L103.216 31.1289L95.2158 34.1289L90.2158 37.1289L91.2158 38.1289L95.2158 39.1289L100.216 38.6289L103.716 37.1289L108.216 35.1289V39.1289L106.216 45.1289L100.716 53.1289L91.2158 62.6289L80.2158 70.1289L71.7158 73.1289L60.2158 74.6289V76.1289L62.2158 77.1289H67.2158H75.2158L80.2158 76.1289L78.7158 80.1289L71.7158 89.6289L62.2158 98.6289L54.7158 104.129L47.7158 108.629L40.7158 111.629L36.7158 113.629L46.2158 114.629L38.2158 116.629L34.2158 117.629L31.2158 119.629L26.7158 126.129Z" fill="white" stroke="white"/>
</g>
<defs>
<clipPath id="clip0_757_22">
<rect width="135" height="139" rx="10" fill="white"/>
</clipPath>
</defs>
</svg>
