<svg width="359" height="139" viewBox="0 0 359 139" fill="none" xmlns="http://www.w3.org/2000/svg">
<g clip-path="url(#clip0_755_12)">
<rect width="359" height="139" fill="#00A582"/>
<path d="M-0.5 138.5H127L146.5 75L174.5 36L243.5 -1H-0.5V138.5Z" fill="#00A582" stroke="#00A582"/>
<path d="M360 -1H237.5L176 63L132 138.5H360V-1Z" fill="black" stroke="black"/>
<path d="M139.216 126.129L133.716 136.129L132.716 137.129L135.216 128.129L138.716 117.629L142.216 107.129L146.716 97.1289L153.216 84.6289L159.716 74.6289L173.716 53.6289L183.716 43.1289L192.716 34.1289L199.716 26.6289L191.216 32.1289L182.216 40.6289L171.716 51.6289L157.216 72.6289L150.716 83.1289L143.716 95.6289L139.216 106.129L135.216 117.629L131.716 128.129L126.716 138.629L127.716 130.129L126.716 116.629L124.716 110.129L122.716 106.129L118.716 99.6289L116.716 95.6289H118.716L121.216 97.1289L126.716 101.629V100.629V94.1289V88.6289L127.716 81.1289L128.716 76.1289L131.216 69.6289L135.216 63.1289L138.716 58.1289L143.716 53.6289L149.216 48.6289L156.216 44.6289V46.1289V59.1289L157.216 57.1289L159.716 47.6289L162.716 39.1289L167.716 32.1289L173.716 26.6289L178.716 23.1289L186.216 18.6289V23.1289L185.216 28.1289L187.716 24.1289L189.716 20.6289L194.716 14.1289L202.716 9.12891L213.216 4.12891L221.216 1.62891L231.716 -0.371094H242.716L241.716 2.62891L239.216 9.12891L235.216 14.1289L230.216 20.6289L222.216 26.6289L215.716 31.1289L207.716 34.1289L202.716 37.1289L203.716 38.1289L207.716 39.1289L212.716 38.6289L216.216 37.1289L220.716 35.1289V39.1289L218.716 45.1289L213.216 53.1289L203.716 62.6289L192.716 70.1289L184.216 73.1289L172.716 74.6289V76.1289L174.716 77.1289H179.716H187.716L192.716 76.1289L191.216 80.1289L184.216 89.6289L174.716 98.6289L167.216 104.129L160.216 108.629L153.216 111.629L149.216 113.629L158.716 114.629L150.716 116.629L146.716 117.629L143.716 119.629L139.216 126.129Z" fill="white" stroke="white"/>
</g>
<defs>
<clipPath id="clip0_755_12">
<rect width="359" height="139" fill="white"/>
</clipPath>
</defs>
</svg>
